linja sike.glyphspackage
{
glyphname = "a-sp";
layers = (
{
layerId = m01;
shapes = (
{
attr = {
identifier = ID0x1286af090;
strokeHeight = 30;
strokeWidth = 30;
};
closed = 1;
nodes = (
(1302,109,o),
(1394,200,o),
(1394,315,cs),
(1394,429,o),
(1302,521,o),
(1188,521,cs),
(1073,521,o),
(982,429,o),
(982,315,cs),
(982,200,o),
(1073,109,o),
(1188,109,cs)
);
},
{
attr = {
identifier = ID0x1286af090;
strokeHeight = 30;
strokeWidth = 30;
};
closed = 1;
nodes = (
(1454,511,o),
(1323,676,o),
(1144,728,c),
(1144,1659,l),
(904,1659,l),
(904,728,l),
(725,676,o),
(594,511,o),
(594,315,cs),
(594,77,o),
(786,-115,o),
(1024,-115,cs),
(1148,-115,o),
(1259,-63,o),
(1338,21,c),
(1446,-92,l),
(1454,315,l)
);
}
);
width = 2048;
}
);
unicode = 989440;
}
{
glyphname = "akesi-sp";
layers = (
{
layerId = m01;
shapes = (
{
attr = {
identifier = ID0x13980a800;
strokeHeight = 30;
strokeWidth = 30;
};
closed = 1;
nodes = (
(1728,1126,l),
(1728,1361,l),
(1553,1565,o),
(1293,1695,o),
(1005,1695,cs),
(736,1695,o),
(494,1583,o),
(321,1404,c),
(321,1126,l)
);
},
{
attr = {
identifier = ID0x13980a800;
strokeHeight = 30;
strokeWidth = 30;
};
closed = 1;
nodes = (
(1727,571,l),
(1728,926,l),
(321,926,l),
(321,571,l)
);
},
{
attr = {
identifier = ID0x13980a800;
strokeHeight = 30;
strokeWidth = 30;
};
closed = 1;
nodes = (
(321,371,l),
(321,86,l),
(494,-93,o),
(736,-205,o),
(1005,-205,cs),
(1293,-205,o),
(1553,-75,o),
(1727,129,c),
(1727,371,l)
);
},
{
attr = {
strokeHeight = 30;
strokeWidth = 30;
};
closed = 1;
nodes = (
(334,1672,o),
(425,1763,o),
(425,1876,cs),
(425,1988,o),
(334,2079,o),
(222,2079,cs),
(109,2079,o),
(18,1988,o),
(18,1876,cs),
(18,1763,o),
(109,1672,o),
(222,1672,cs)
);
},
{
attr = {
strokeHeight = 30;
strokeWidth = 30;
};
closed = 1;
nodes = (
(1940,1672,o),
(2031,1763,o),
(2031,1876,cs),
(2031,1988,o),
(1940,2079,o),
(1828,2079,cs),
(1715,2079,o),
(1624,1988,o),
(1624,1876,cs),
(1624,1763,o),
(1715,1672,o),
(1828,1672,cs)
);
}
);
width = 2048;
}
);
unicode = 989441;
}
{
glyphname = "ala-sp";
layers = (
{
layerId = m01;
shapes = (
{
attr = {
strokeHeight = 30;
strokeWidth = 30;
};
closed = 1;
nodes = (
(1809,566,o),
(1802,901,o),
(1621,1148,c),
(1214,741,l),
(1642,313,l)
);
},
{
attr = {
strokeHeight = 30;
strokeWidth = 30;
};
closed = 1;
nodes = (
(1066,889,l),
(1474,1297,l),
(1227,1487,o),
(886,1497,o),
(628,1327,c)
);
},
{
attr = {
strokeHeight = 30;
strokeWidth = 30;
};
closed = 1;
nodes = (
(249,899,o),
(248,533,o),
(448,271,c),
(894,717,l),
(450,1161,l)
);
},
{
attr = {
strokeHeight = 30;
strokeWidth = 30;
};
closed = 1;
nodes = (
(1042,569,l),
(598,125,l),
(859,-67,o),
(1218,-64,o),
(1476,135,c)
);
}
);
width = 2048;
}
);
unicode = 989442;
}
{
glyphname = "alasa-sp";
layers = (
{
layerId = m01;
shapes = (
{
attr = {
strokeHeight = 30;
strokeWidth = 30;
};
closed = 1;
nodes = (
(327,865,l),
(1196,865,l),
(1139,1212,o),
(837,1477,o),
(474,1477,cs),
(424,1477,o),
(375,1472,o),
(327,1462,c)
);
},
{
attr = {
strokeHeight = 30;
strokeWidth = 30;
};
closed = 1;
nodes = (
(327,625,l),
(327,28,l),
(375,18,o),
(424,13,o),
(474,13,cs),
(837,13,o),
(1139,278,o),
(1196,625,c)
);
},
{
attr = {
strokeHeight = 30;
strokeWidth = 30;
};
closed = 1;
nodes = (
(1309,336,l),
(1519,336,l),
(1643,429,o),
(1722,578,o),
(1722,745,cs),
(1722,912,o),
(1643,1061,o),
(1519,1154,c),
(1309,1154,l),
(1639,745,l)
);
}
);
width = 2048;
}
);
unicode = 989443;
}
{
glyphname = "ale-sp";
layers = (
{
layerId = m01;
shapes = (
{
attr = {
identifier = ID0x15995a9f0;
strokeHeight = 30;
strokeWidth = 30;
};
closed = 1;
nodes = (
(809,263,o),
(1024,480,o),
(1024,745,cs),
(1024,1010,o),
(809,1227,o),
(545,1227,cs),
(279,1227,o),
(62,1010,o),
(62,745,cs),
(62,480,o),
(279,263,o),
(545,263,cs)
);
},
{
attr = {
identifier = ID0x15995a9f0;
strokeHeight = 30;
strokeWidth = 30;
};
closed = 1;
nodes = (
(1770,263,o),
(1986,480,o),
(1986,745,cs),
(1986,1010,o),
(1770,1227,o),
(1506,1227,cs),
(1241,1227,o),
(1024,1010,o),
(1024,745,cs),
(1024,480,o),
(1241,263,o),
(1506,263,cs)
);
}
);
width = 2048;
}
);
unicode = 989444;
}
{
glyphname = "anpa-sp";
layers = (
{
layerId = m01;
shapes = (
{
attr = {
identifier = ID0x1384f8b50;
strokeHeight = 30;
strokeWidth = 30;
};
closed = 1;
nodes = (
(1428,643,o),
(1756,971,o),
(1756,1375,c),
(1024,807,l),
(292,1375,l),
(292,971,o),
(620,643,o),
(1024,643,cs)
);
},
{
attr = {
identifier = ID0x1384f8b50;
strokeHeight = 30;
strokeWidth = 30;
};
closed = 1;
nodes = (
(1116,114,o),
(1190,188,o),
(1190,280,cs),
(1190,372,o),
(1116,446,o),
(1024,446,cs),
(932,446,o),
(858,372,o),
(858,280,cs),
(858,188,o),
(932,114,o),
(1024,114,cs)
);
}
);
width = 2048;
}
);
unicode = 989445;
}
{
glyphname = "ante-sp";
layers = (
{
layerId = m01;
shapes = (
{
attr = {
identifier = ID0x1241082e0;
strokeHeight = 30;
strokeWidth = 30;
};
closed = 1;
nodes = (
(1399,1406,o),
(1212,1478,o),
(1024,1478,cs),
(837,1478,o),
(650,1406,o),
(507,1263,c),
(924,745,l),
(507,228,l),
(649,85,o),
(837,14,o),
(1024,14,cs),
(1212,14,o),
(1399,85,o),
(1542,228,c),
(1124,745,l),
(1542,1263,l)
);
}
);
width = 2048;
}
);
unicode = 989446;
}
{
glyphname = "anu-sp";
layers = (
{
layerId = m01;
shapes = (
{
attr = {
strokeHeight = 30;
strokeWidth = 30;
};
closed = 1;
nodes = (
(536,1531,l),
(428,1348,o),
(400,1120,o),
(477,905,cs),
(556,690,o),
(725,534,o),
(924,463,c)
);
},
{
attr = {
strokeHeight = 30;
strokeWidth = 30;
};
closed = 1;
nodes = (
(772,9,l),
(1076,-23,o),
(1380,138,o),
(1516,430,cs),
(1652,722,o),
(1580,1058,o),
(1361,1270,c)
);
}
);
width = 2048;
}
);
unicode = 989447;
}
{
glyphname = "awen-sp";
layers = (
{
layerId = m01;
shapes = (
{
attr = {
strokeHeight = 100;
strokeWidth = 100;
};
closed = 0;
nodes = (
(799,48,l)
);
},
{
attr = {
strokeHeight = 30;
strokeWidth = 30;
};
closed = 1;
nodes = (
(1494,161,o),
(1613,281,o),
(1684,428,c),
(1433,441,l),
(1276,1432,l),
(1197,1461,o),
(1113,1477,o),
(1024,1477,cs),
(979,1477,o),
(935,1473,o),
(893,1465,c),
(659,393,l),
(328,517,l),
(401,295,o),
(577,120,o),
(799,48,c),
(1054,1093,l),
(1347,88,l)
);
}
);
width = 2048;
}
);
unicode = 989448;
}
{
glyphname = "e-sp";
layers = (
{
layerId = m01;
shapes = (
{
attr = {
strokeHeight = 30;
strokeWidth = 30;
};
closed = 1;
nodes = (
(605,83,o),
(616,83,o),
(627,84,c),
(1020,741,l),
(653,1545,l),
(633,1546,o),
(614,1547,o),
(594,1547,cs),
(417,1547,o),
(255,1484,o),
(128,1379,c),
(420,741,l),
(127,251,l),
(254,146,o),
(417,83,o),
(594,83,cs)
);
},
{
attr = {
strokeHeight = 30;
strokeWidth = 30;
};
closed = 1;
nodes = (
(1505,83,o),
(1516,83,o),
(1527,84,c),
(1920,741,l),
(1553,1545,l),
(1533,1546,o),
(1514,1547,o),
(1494,1547,cs),
(1317,1547,o),
(1155,1484,o),
(1028,1379,c),
(1320,741,l),
(1027,251,l),
(1154,146,o),
(1317,83,o),
(1494,83,cs)
);
}
);
width = 2048;
}
);
unicode = 989449;
}
{
glyphname = "en-sp";
layers = (
{
layerId = m01;
shapes = (
{
attr = {
strokeHeight = 30;
strokeWidth = 30;
};
closed = 1;
nodes = (
(1119,13,o),
(1210,31,o),
(1293,64,c),
(1307,594,l),
(1738,582,l),
(1750,635,o),
(1756,689,o),
(1756,745,cs),
(1756,825,o),
(1743,903,o),
(1719,975,c),
(1307,964,l),
(1313,1418,l),
(1224,1456,o),
(1127,1477,o),
(1024,1477,cs),
(948,1477,o),
(874,1465,o),
(805,1444,c),
(798,934,l),
(315,927,l),
(300,869,o),
(292,808,o),
(292,745,cs),
(292,691,o),
(298,638,o),
(309,587,c),
(798,594,l),
(798,591,l),
(812,44,l),
(879,24,o),
(950,13,o),
(1024,13,cs)
);
}
);
width = 2048;
}
);
unicode = 989450;
}
{
glyphname = "ijo-sp";
layers = (
{
layerId = m01;
shapes = (
{
attr = {
strokeHeight = 30;
strokeWidth = 30;
};
closed = 1;
nodes = (
(1428,13,o),
(1756,341,o),
(1756,745,cs),
(1756,1149,o),
(1428,1477,o),
(1024,1477,cs),
(620,1477,o),
(292,1149,o),
(292,745,cs),
(292,341,o),
(620,13,o),
(1024,13,cs)
);
}
);
width = 2048;
}
);
unicode = 989452;
}
{
glyphname = "ilo-sp";
layers = (
{
layerId = m01;
shapes = (
{
attr = {
strokeWidth = 30;
};
closed = 1;
nodes = (
(774,934,l),
(1024,-170,l),
(1274,934,l),
(1847,934,l),
(1863,1000,o),
(1873,1068,o),
(1873,1139,cs),
(1873,1334,o),
(1806,1514,o),
(1696,1658,c),
(352,1658,l),
(241,1514,o),
(175,1334,o),
(175,1139,cs),
(175,1068,o),
(184,1000,o),
(200,934,c)
);
}
);
width = 2048;
}
);
unicode = 989454;
}
{
glyphname = "insa-sp";
layers = (
{
layerId = m01;
shapes = (
{
attr = {
identifier = ID0x139c86570;
strokeHeight = 30;
strokeWidth = 30;
};
closed = 1;
nodes = (
(1428,303,o),
(1756,631,o),
(1756,1035,c),
(1024,467,l),
(292,1035,l),
(292,631,o),
(620,303,o),
(1024,303,cs)
);
},
{
attr = {
identifier = ID0x139c86570;
strokeHeight = 30;
strokeWidth = 30;
};
closed = 1;
nodes = (
(1116,874,o),
(1190,948,o),
(1190,1040,cs),
(1190,1132,o),
(1116,1206,o),
(1024,1206,cs),
(932,1206,o),
(858,1132,o),
(858,1040,cs),
(858,948,o),
(932,874,o),
(1024,874,cs)
);
}
);
width = 2048;
}
);
unicode = 989455;
}
{
glyphname = "jaki-sp";
layers = (
{
layerId = m01;
shapes = (
{
attr = {
strokeHeight = 30;
strokeWidth = 30;
};
closed = 1;
nodes = (
(1117,1255,l),
(1389,1418,l),
(1266,1490,o),
(1123,1531,o),
(970,1531,cs),
(950,1531,o),
(930,1530,o),
(911,1529,c)
);
},
{
attr = {
strokeHeight = 30;
strokeWidth = 30;
};
closed = 1;
nodes = (
(1483,903,l),
(1683,1263,l),
(1627,1324,o),
(1561,1376,o),
(1489,1418,c),
(1217,1255,l)
);
},
{
attr = {
strokeHeight = 30;
strokeWidth = 30;
};
closed = 1;
nodes = (
(610,-128,l),
(662,-138,o),
(715,-143,o),
(770,-143,cs),
(938,-143,o),
(1095,-93,o),
(1226,-8,c),
(872,343,l)
);
},
{
attr = {
strokeHeight = 30;
strokeWidth = 30;
};
closed = 1;
nodes = (
(1643,660,l),
(1799,681,l),
(1804,718,o),
(1807,756,o),
(1807,794,cs),
(1807,1014,o),
(1722,1214,o),
(1583,1363,c),
(1383,1003,l)
);
},
{
attr = {
strokeHeight = 30;
strokeWidth = 30;
};
closed = 1;
nodes = (
(301,664,l),
(409,413,o),
(636,225,o),
(910,172,c),
(1172,643,l),
(1049,765,l)
);
},
{
attr = {
strokeHeight = 30;
strokeWidth = 30;
};
closed = 1;
nodes = (
(1049,465,l),
(1172,343,l),
(1255,493,l)
);
},
{
attr = {
strokeHeight = 30;
strokeWidth = 30;
};
closed = 1;
nodes = (
(1857,408,l),
(1877,463,o),
(1891,521,o),
(1899,581,c),
(1743,560,l)
);
},
{
attr = {
strokeHeight = 30;
strokeWidth = 30;
};
closed = 1;
nodes = (
(911,1629,l),
(639,1610,o),
(403,1461,o),
(265,1244,c),
(516,995,l),
(133,765,l),
(137,658,o),
(161,557,o),
(201,464,c),
(949,565,l),
(516,995,l),
(1117,1355,l)
);
},
{
attr = {
strokeHeight = 30;
strokeWidth = 30;
};
closed = 1;
nodes = (
(1317,1355,l),
(716,995,l),
(465,1244,l),
(381,1114,o),
(333,960,o),
(333,794,cs),
(333,784,o),
(333,775,o),
(333,765,c),
(716,995,l),
(1149,565,l),
(1355,593,l),
(1583,1003,l)
);
},
{
attr = {
strokeHeight = 30;
strokeWidth = 30;
};
closed = 1;
nodes = (
(1583,503,l),
(1355,93,l),
(1843,160,l)
);
},
{
attr = {
strokeHeight = 30;
strokeWidth = 30;
};
closed = 1;
nodes = (
(1643,760,l),
(1155,693,l),
(1072,543,l),
(1426,192,l),
(1577,291,o),
(1694,436,o),
(1757,608,c)
);
}
);
width = 2048;
}
);
unicode = 989456;
}
{
glyphname = "jan-sp";
layers = (
{
layerId = m01;
shapes = (
{
attr = {
strokeHeight = 100;
strokeWidth = 100;
};
closed = 1;
nodes = (
(867,83,o),
(722,132,o),
(603,217,c),
(335,-51,l),
(144,140,l),
(414,410,l),
(337,526,o),
(292,665,o),
(292,815,cs),
(292,1219,o),
(620,1547,o),
(1024,1547,cs),
(1428,1547,o),
(1756,1219,o),
(1756,815,cs),
(1756,665,o),
(1711,526,o),
(1634,410,c),
(1904,140,l),
(1713,-51,l),
(1445,217,l),
(1326,132,o),
(1181,83,o),
(1024,83,cs)
);
}
);
width = 2048;
}
);
unicode = 989457;
}
{
glyphname = "jelo-sp";
layers = (
{
layerId = m01;
shapes = (
{
attr = {
strokeHeight = 30;
strokeWidth = 30;
};
closed = 1;
nodes = (
(571,349,l),
(692,230,o),
(858,157,o),
(1041,157,cs),
(1188,157,o),
(1324,204,o),
(1434,285,c),
(1642,0,l),
(1283,-188,o),
(714,-151,o),
(349,84,c)
);
},
{
attr = {
strokeHeight = 30;
strokeWidth = 30;
};
closed = 1;
nodes = (
(1352,263,o),
(1604,515,o),
(1604,829,cs),
(1604,1140,o),
(1352,1392,o),
(1041,1392,cs),
(729,1392,o),
(477,1140,o),
(477,829,cs),
(477,515,o),
(729,263,o),
(1041,263,cs)
);
},
{
attr = {
strokeHeight = 30;
strokeWidth = 30;
};
closed = 1;
nodes = (
(1083,1454,o),
(1138,1509,o),
(1138,1576,cs),
(1138,1643,o),
(1083,1698,o),
(1016,1698,cs),
(949,1698,o),
(894,1643,o),
(894,1576,cs),
(894,1509,o),
(949,1454,o),
(1016,1454,cs)
);
},
{
attr = {
strokeHeight = 30;
strokeWidth = 30;
};
closed = 1;
nodes = (
(1926,698,o),
(1981,753,o),
(1981,820,cs),
(1981,887,o),
(1926,942,o),
(1859,942,cs),
(1792,942,o),
(1737,887,o),
(1737,820,cs),
(1737,753,o),
(1792,698,o),
(1859,698,cs)
);
},
{
attr = {
strokeHeight = 30;
strokeWidth = 30;
};
closed = 1;
nodes = (
(345,772,o),
(400,827,o),
(400,894,cs),
(400,961,o),
(345,1016,o),
(278,1016,cs),
(211,1016,o),
(156,961,o),
(156,894,cs),
(156,827,o),
(211,772,o),
(278,772,cs)
);
}
);
width = 2048;
}
);
unicode = 989458;
}
{
glyphname = "kili-sp";
layers = (
{
layerId = m01;
shapes = (
{
attr = {
strokeHeight = 30;
strokeWidth = 30;
};
closed = 1;
nodes = (
(372,123,o),
(292,305,o),
(292,505,cs),
(292,853,o),
(536,1145,o),
(862,1219,c),
(1050,1017,l),
(1354,1158,l),
(1593,1037,o),
(1756,790,o),
(1756,505,cs),
(1756,305,o),
(1676,123,o),
(1545,-9,c),
(503,-9,l)
);
},
{
attr = {
strokeHeight = 30;
strokeWidth = 30;
};
closed = 1;
nodes = (
(1290,1478,l),
(1252,1529,o),
(1192,1562,o),
(1125,1562,cs),
(1094,1562,o),
(1064,1555,o),
(1038,1543,c),
(949,1254,l),
(984,1194,o),
(1050,1153,o),
(1125,1153,cs),
(1164,1153,o),
(1201,1164,o),
(1232,1184,c)
);
}
);
width = 2048;
}
);
unicode = 989466;
}
{
glyphname = "li-sp";
layers = (
{
layerId = m01;
shapes = (
{
attr = {
strokeHeight = 30;
strokeWidth = 30;
};
closed = 1;
nodes = (
(1053,767,l),
(695,158,l),
(792,93,o),
(904,50,o),
(1025,37,c),
(1453,767,l),
(848,1451,l),
(752,1415,o),
(665,1359,o),
(592,1288,c)
);
}
);
width = 2048;
}
);
unicode = 989479;
}
{
glyphname = "lili-sp";
layers = (
{
layerId = m01;
shapes = (
{
attr = {
strokeHeight = 30;
strokeWidth = 30;
};
closed = 1;
nodes = (
(902,877,l),
(862,842,o),
(837,792,o),
(837,735,cs),
(837,632,o),
(921,548,o),
(1024,548,cs),
(1127,548,o),
(1211,632,o),
(1211,735,cs),
(1211,792,o),
(1186,842,o),
(1146,877,c),
(1024,731,l)
);
}
);
width = 2048;
}
);
unicode = 989480;
}
{
glyphname = "linja-sp";
layers = (
{
layerId = m01;
shapes = (
{
attr = {
strokeWidth = 30;
};
closed = 1;
nodes = (
(1258,790,l),
(1121,908,o),
(934,965,o),
(741,931,cs),
(549,897,o),
(392,779,o),
(304,622,c)
);
},
{
attr = {
strokeWidth = 30;
};
closed = 1;
nodes = (
(929,589,o),
(1115,532,o),
(1308,566,cs),
(1500,600,o),
(1656,718,o),
(1745,876,c),
(791,707,l)
);
}
);
width = 2048;
}
);
unicode = 989481;
}
{
glyphname = "lipu-sp";
layers = (
{
layerId = m01;
shapes = (
{
attr = {
strokeHeight = 30;
strokeWidth = 30;
};
closed = 1;
nodes = (
(1728,1361,l),
(1553,1565,o),
(1293,1695,o),
(1005,1695,cs),
(736,1695,o),
(494,1583,o),
(321,1404,c),
(321,86,l),
(494,-93,o),
(736,-205,o),
(1005,-205,cs),
(1293,-205,o),
(1553,-75,o),
(1727,129,c)
);
}
);
width = 2048;
}
);
unicode = 989482;
}
{
glyphname = "lupa-sp";
layers = (
{
layerId = m01;
shapes = (
{
attr = {
strokeHeight = 30;
strokeWidth = 30;
};
closed = 1;
nodes = (
(815,113,o),
(627,201,o),
(493,341,c),
(493,1349,l),
(547,1292,o),
(679,1244,o),
(749,1207,c),
(749,605,l),
(819,470,o),
(916,385,o),
(1024,385,cs),
(1132,385,o),
(1229,470,o),
(1299,605,c),
(1299,1207,l),
(1369,1244,o),
(1501,1292,o),
(1555,1349,c),
(1555,341,l),
(1421,201,o),
(1233,113,o),
(1024,113,cs)
);
}
);
width = 2048;
}
);
unicode = 989487;
}
{
glyphname = "mi-sp";
layers = (
{
layerId = m01;
shapes = (
{
attr = {
strokeHeight = 100;
strokeWidth = 100;
};
closed = 1;
nodes = (
(696,1360,o),
(431,1094,o),
(431,767,cs),
(431,-277,l),
(682,281,l),
(779,213,o),
(897,173,o),
(1024,173,cs),
(1352,173,o),
(1617,439,o),
(1617,767,cs),
(1617,1094,o),
(1352,1360,o),
(1024,1360,cs)
);
},
{
attr = {
strokeHeight = 100;
strokeWidth = 100;
};
closed = 1;
nodes = (
(1191,603,o),
(1326,738,o),
(1326,905,cs),
(1326,1072,o),
(1191,1207,o),
(1024,1207,cs),
(857,1207,o),
(722,1072,o),
(722,905,cs),
(722,738,o),
(857,603,o),
(1024,603,cs)
);
}
);
width = 2048;
}
);
unicode = 989492;
}
{
glyphname = "musi-sp";
layers = (
{
layerId = m01;
shapes = (
{
attr = {
strokeHeight = 100;
strokeWidth = 100;
};
closed = 1;
nodes = (
(1728,1404,l),
(1005,-125,l),
(321,1404,l),
(321,86,l),
(494,-93,o),
(737,-205,o),
(1005,-205,cs),
(1294,-205,o),
(1553,-75,o),
(1728,129,c)
);
},
{
attr = {
strokeWidth = 100;
};
closed = 1;
nodes = (
(451,1680,o),
(556,1785,o),
(556,1915,cs),
(556,2045,o),
(451,2150,o),
(321,2150,cs),
(191,2150,o),
(86,2045,o),
(86,1915,cs),
(86,1785,o),
(191,1680,o),
(321,1680,cs)
);
},
{
attr = {
strokeWidth = 100;
};
closed = 1;
nodes = (
(1857,1680,o),
(1962,1785,o),
(1962,1915,cs),
(1962,2045,o),
(1857,2150,o),
(1727,2150,cs),
(1597,2150,o),
(1492,2045,o),
(1492,1915,cs),
(1492,1785,o),
(1597,1680,o),
(1727,1680,cs)
);
}
);
width = 2048;
}
);
unicode = 989499;
}
{
glyphname = "nanpa-sp";
layers = (
{
background = {
shapes = (
{
attr = {
identifier = ID0x128623170;
};
closed = 1;
nodes = (
(1428,13,o),
(1756,341,o),
(1756,745,cs),
(1756,1149,o),
(1428,1477,o),
(1024,1477,cs),
(620,1477,o),
(292,1149,o),
(292,745,cs),
(292,341,o),
(620,13,o),
(1024,13,cs)
);
},
{
closed = 1;
nodes = (
(689,0,l),
(883,0,l),
(883,1548,l),
(689,1548,l)
);
},
{
closed = 1;
nodes = (
(1165,0,l),
(1359,0,l),
(1359,1548,l),
(1165,1548,l)
);
},
{
closed = 1;
nodes = (
(1798,439,l),
(1798,633,l),
(250,633,l),
(250,439,l)
);
},
{
closed = 1;
nodes = (
(1798,915,l),
(1798,1109,l),
(250,1109,l),
(250,915,l)
);
}
);
};
layerId = m01;
shapes = (
{
attr = {
strokeHeight = 30;
strokeWidth = 30;
};
closed = 1;
nodes = (
(1072,13,o),
(1119,18,o),
(1165,27,c),
(1165,439,l),
(883,439,l),
(883,27,l),
(929,18,o),
(976,13,o),
(1024,13,cs)
);
},
{
attr = {
strokeHeight = 30;
strokeWidth = 30;
};
closed = 1;
nodes = (
(689,633,l),
(689,915,l),
(312,915,l),
(299,860,o),
(292,804,o),
(292,745,cs),
(292,707,o),
(295,670,o),
(301,633,c)
);
},
{
attr = {
strokeHeight = 30;
strokeWidth = 30;
};
closed = 1;
nodes = (
(689,1109,l),
(689,1396,l),
(564,1331,o),
(459,1231,o),
(389,1109,c)
);
},
{
attr = {
strokeHeight = 30;
strokeWidth = 30;
};
closed = 1;
nodes = (
(1165,633,l),
(1165,915,l),
(883,915,l),
(883,633,l)
);
},
{
attr = {
strokeHeight = 30;
strokeWidth = 30;
};
closed = 1;
nodes = (
(1165,1109,l),
(1165,1463,l),
(1119,1472,o),
(1072,1477,o),
(1024,1477,cs),
(976,1477,o),
(929,1472,o),
(883,1463,c),
(883,1109,l)
);
},
{
attr = {
strokeHeight = 30;
strokeWidth = 30;
};
closed = 1;
nodes = (
(1504,169,o),
(1621,291,o),
(1689,439,c),
(1359,439,l),
(1359,94,l)
);
},
{
attr = {
strokeHeight = 30;
strokeWidth = 30;
};
closed = 1;
nodes = (
(1747,633,l),
(1753,670,o),
(1756,707,o),
(1756,745,cs),
(1756,804,o),
(1749,860,o),
(1736,915,c),
(1359,915,l),
(1359,633,l)
);
},
{
attr = {
strokeHeight = 30;
strokeWidth = 30;
};
closed = 1;
nodes = (
(1659,1109,l),
(1589,1231,o),
(1484,1331,o),
(1359,1396,c),
(1359,1109,l)
);
},
{
attr = {
strokeHeight = 30;
strokeWidth = 30;
};
closed = 1;
nodes = (
(427,291,o),
(544,169,o),
(689,94,c),
(689,439,l),
(359,439,l)
);
}
);
width = 2048;
}
);
unicode = 989501;
}
{
glyphname = "o-sp";
layers = (
{
layerId = m01;
shapes = (
{
attr = {
strokeWidth = 100;
};
closed = 1;
nodes = (
(904,728,l),
(725,676,o),
(594,511,o),
(594,315,cs),
(594,77,o),
(786,-115,o),
(1024,-115,cs),
(1262,-115,o),
(1454,77,o),
(1454,315,cs),
(1454,511,o),
(1323,676,o),
(1144,728,c),
(1144,1659,l),
(904,1659,l)
);
},
{
attr = {
strokeHeight = 100;
strokeWidth = 100;
};
closed = 1;
nodes = (
(1242,109,o),
(1334,200,o),
(1334,315,cs),
(1334,429,o),
(1242,521,o),
(1128,521,cs),
(1013,521,o),
(922,429,o),
(922,315,cs),
(922,200,o),
(1013,109,o),
(1128,109,cs)
);
}
);
width = 2048;
}
);
unicode = 989508;
}
{
glyphname = "open-sp";
layers = (
{
layerId = m01;
shapes = (
{
attr = {
strokeHeight = 30;
strokeWidth = 30;
};
closed = 1;
nodes = (
(1652,270,l),
(1494,104,o),
(1271,0,o),
(1024,0,cs),
(777,0,o),
(554,104,o),
(396,270,c),
(396,1462,l),
(554,1296,o),
(777,1192,o),
(1024,1192,cs),
(1271,1192,o),
(1494,1296,o),
(1652,1462,c)
);
},
{
attr = {
strokeHeight = 30;
strokeWidth = 30;
};
closed = 0;
nodes = (
(396,652,l),
(554,486,o),
(777,382,o),
(1024,382,cs),
(1271,382,o),
(1494,486,o),
(1652,652,c)
);
}
);
width = 2048;
}
);
unicode = 989511;
}
{
glyphname = "pi-sp";
layers = (
{
layerId = m01;
shapes = (
{
attr = {
strokeHeight = 100;
strokeWidth = 100;
};
closed = 1;
nodes = (
(1691,275,o),
(1390,13,o),
(1029,13,cs),
(625,13,o),
(297,341,o),
(297,745,cs),
(297,1070,o),
(510,1346,o),
(803,1441,c),
(585,242,l),
(1750,620,l)
);
}
);
width = 2048;
}
);
unicode = 989517;
}
{
glyphname = "pini-sp";
layers = (
{
background = {
shapes = (
{
attr = {
identifier = ID0x11eaffa40;
};
closed = 1;
nodes = (
(1428,13,o),
(1756,341,o),
(1756,745,cs),
(1756,1149,o),
(1428,1477,o),
(1024,1477,cs),
(620,1477,o),
(292,1149,o),
(292,745,cs),
(292,341,o),
(620,13,o),
(1024,13,cs)
);
},
{
closed = 1;
nodes = (
(790,1209,l),
(790,281,l),
(-240,281,l),
(-240,1209,l)
);
},
{
closed = 1;
nodes = (
(2288,1209,l),
(2288,281,l),
(1258,281,l),
(1258,1209,l)
);
}
);
};
layerId = m01;
shapes = (
{
attr = {
strokeHeight = 30;
strokeWidth = 30;
};
closed = 1;
nodes = (
(1252,13,o),
(1456,117,o),
(1590,281,c),
(1258,281,l),
(1258,1209,l),
(1590,1209,l),
(1456,1373,o),
(1252,1477,o),
(1024,1477,cs),
(796,1477,o),
(592,1373,o),
(458,1209,c),
(790,1209,l),
(790,281,l),
(458,281,l),
(592,117,o),
(796,13,o),
(1024,13,cs)
);
}
);
width = 2048;
}
);
unicode = 989520;
}
{
glyphname = "pona-sp";
layers = (
{
layerId = m01;
shapes = (
{
attr = {
strokeHeight = 30;
strokeWidth = 30;
};
closed = 1;
nodes = (
(1716,1235,l),
(1742,1160,o),
(1756,1079,o),
(1756,995,cs),
(1756,591,o),
(1428,263,o),
(1024,263,cs),
(620,263,o),
(292,591,o),
(292,995,cs),
(292,1079,o),
(306,1160,o),
(332,1235,c),
(1024,301,l)
);
}
);
width = 2048;
}
);
unicode = 989524;
}
{
glyphname = "pu-sp";
layers = (
{
layerId = m01;
shapes = (
{
attr = {
identifier = ID0x12522d3d0;
strokeHeight = 100;
strokeWidth = 100;
};
closed = 1;
nodes = (
(1231,163,o),
(1399,331,o),
(1399,538,cs),
(1399,745,o),
(1231,914,o),
(1024,914,cs),
(817,914,o),
(649,745,o),
(649,538,cs),
(649,331,o),
(817,163,o),
(1024,163,cs)
);
},
{
attr = {
identifier = ID0x12522d3d0;
strokeHeight = 100;
strokeWidth = 100;
};
closed = 1;
nodes = (
(941,1315,o),
(874,1249,o),
(874,1166,cs),
(874,1083,o),
(941,1016,o),
(1024,1016,cs),
(1107,1016,o),
(1174,1083,o),
(1174,1166,cs),
(1174,1249,o),
(1107,1315,o),
(1024,1315,cs)
);
},
{
attr = {
identifier = ID0x12522d3d0;
strokeHeight = 100;
strokeWidth = 100;
};
closed = 1;
nodes = (
(1337,1213,o),
(1270,1146,o),
(1270,1063,cs),
(1270,981,o),
(1337,914,o),
(1419,914,cs),
(1502,914,o),
(1569,981,o),
(1569,1063,cs),
(1569,1146,o),
(1502,1213,o),
(1419,1213,cs)
);
},
{
attr = {
identifier = ID0x12522d3d0;
strokeHeight = 100;
strokeWidth = 100;
};
closed = 1;
nodes = (
(546,1213,o),
(479,1146,o),
(479,1063,cs),
(479,981,o),
(546,914,o),
(629,914,cs),
(711,914,o),
(778,981,o),
(778,1063,cs),
(778,1146,o),
(711,1213,o),
(629,1213,cs)
);
},
{
alignment = -1;
ref = "lipu-sp";
}
);
width = 2048;
}
);
unicode = 989525;
}
{
glyphname = "sike-sp";
layers = (
{
layerId = m01;
shapes = (
{
attr = {
strokeHeight = 100;
strokeWidth = 100;
};
closed = 1;
nodes = (
(1428,13,o),
(1756,341,o),
(1756,745,cs),
(1756,1149,o),
(1428,1477,o),
(1024,1477,cs),
(620,1477,o),
(292,1149,o),
(292,745,cs),
(292,341,o),
(620,13,o),
(1024,13,cs)
);
},
{
attr = {
strokeHeight = 100;
strokeWidth = 100;
};
closed = 1;
nodes = (
(1293,157,o),
(1512,376,o),
(1512,645,cs),
(1512,914,o),
(1293,1133,o),
(1024,1133,cs),
(755,1133,o),
(536,914,o),
(536,645,cs),
(536,376,o),
(755,157,o),
(1024,157,cs)
);
}
);
width = 2048;
}
);
unicode = 989532;
}
{
glyphname = "sitelen-sp";
layers = (
{
layerId = m01;
shapes = (
{
attr = {
strokeHeight = 100;
strokeWidth = 100;
};
closed = 1;
nodes = (
(1727,1361,l),
(1552,1565,o),
(1292,1695,o),
(1004,1695,cs),
(735,1695,o),
(493,1583,o),
(320,1404,c),
(320,86,l),
(493,-93,o),
(735,-205,o),
(1004,-205,cs),
(1292,-205,o),
(1552,-75,o),
(1726,129,c)
);
},
{
attr = {
identifier = ID0x12522d3d0;
strokeHeight = 100;
strokeWidth = 100;
};
closed = 1;
nodes = (
(940,1055,o),
(873,989,o),
(873,906,cs),
(873,823,o),
(940,756,o),
(1023,756,cs),
(1106,756,o),
(1173,823,o),
(1173,906,cs),
(1173,989,o),
(1106,1055,o),
(1023,1055,cs)
);
},
{
attr = {
identifier = ID0x12522d3d0;
strokeHeight = 100;
strokeWidth = 100;
};
closed = 1;
nodes = (
(1336,853,o),
(1269,786,o),
(1269,703,cs),
(1269,621,o),
(1336,554,o),
(1418,554,cs),
(1501,554,o),
(1568,621,o),
(1568,703,cs),
(1568,786,o),
(1501,853,o),
(1418,853,cs)
);
},
{
attr = {
identifier = ID0x12522d3d0;
strokeHeight = 100;
strokeWidth = 100;
};
closed = 1;
nodes = (
(545,853,o),
(478,786,o),
(478,703,cs),
(478,621,o),
(545,554,o),
(628,554,cs),
(710,554,o),
(777,621,o),
(777,703,cs),
(777,786,o),
(710,853,o),
(628,853,cs)
);
}
);
width = 2048;
}
);
unicode = 989536;
}
{
glyphname = "suli-sp";
layers = (
{
layerId = m01;
shapes = (
{
attr = {
strokeHeight = 30;
strokeWidth = 30;
};
closed = 1;
nodes = (
(1512,1381,l),
(1662,1247,o),
(1756,1052,o),
(1756,835,cs),
(1756,764,o),
(1746,695,o),
(1727,630,c),
(1259,142,l),
(1186,117,o),
(1106,103,o),
(1024,103,cs),
(942,103,o),
(862,117,o),
(789,142,c),
(321,630,l),
(302,695,o),
(292,764,o),
(292,835,cs),
(292,1052,o),
(386,1247,o),
(536,1381,c),
(1024,196,l)
);
}
);
width = 2048;
}
);
unicode = 989539;
}
{
glyphname = "suno-sp";
layers = (
{
layerId = m01;
shapes = (
{
attr = {
identifier = ID0x13c14b0c0;
strokeHeight = 30;
strokeWidth = 30;
};
closed = 1;
nodes = (
(1352,183,o),
(1604,435,o),
(1604,749,cs),
(1604,1060,o),
(1352,1312,o),
(1041,1312,cs),
(729,1312,o),
(477,1060,o),
(477,749,cs),
(477,435,o),
(729,183,o),
(1041,183,cs)
);
},
{
attr = {
identifier = ID0x13c14b0c0;
strokeHeight = 30;
strokeWidth = 30;
};
closed = 1;
nodes = (
(1083,1374,o),
(1138,1429,o),
(1138,1496,cs),
(1138,1563,o),
(1083,1618,o),
(1016,1618,cs),
(949,1618,o),
(894,1563,o),
(894,1496,cs),
(894,1429,o),
(949,1374,o),
(1016,1374,cs)
);
},
{
attr = {
identifier = ID0x13c14b0c0;
strokeHeight = 30;
strokeWidth = 30;
};
closed = 1;
nodes = (
(1926,618,o),
(1981,673,o),
(1981,740,cs),
(1981,807,o),
(1926,862,o),
(1859,862,cs),
(1792,862,o),
(1737,807,o),
(1737,740,cs),
(1737,673,o),
(1792,618,o),
(1859,618,cs)
);
},
{
attr = {
identifier = ID0x13c14b0c0;
strokeHeight = 30;
strokeWidth = 30;
};
closed = 1;
nodes = (
(345,692,o),
(400,747,o),
(400,814,cs),
(400,881,o),
(345,936,o),
(278,936,cs),
(211,936,o),
(156,881,o),
(156,814,cs),
(156,747,o),
(211,692,o),
(278,692,cs)
);
},
{
attr = {
identifier = ID0x13c14b0c0;
strokeHeight = 30;
strokeWidth = 30;
};
closed = 1;
nodes = (
(1089,-219,o),
(1144,-164,o),
(1144,-97,cs),
(1144,-30,o),
(1089,25,o),
(1022,25,cs),
(955,25,o),
(900,-30,o),
(900,-97,cs),
(900,-164,o),
(955,-219,o),
(1022,-219,cs)
);
}
);
width = 2048;
}
);
unicode = 989540;
}
{
glyphname = "taso-sp";
layers = (
{
layerId = m01;
shapes = (
{
attr = {
strokeHeight = 30;
strokeWidth = 30;
};
closed = 1;
nodes = (
(1428,13,o),
(1756,341,o),
(1756,745,cs),
(1756,1149,o),
(1428,1477,o),
(1024,1477,c),
(1024,1027,l),
(292,745,l),
(1024,463,l),
(1024,13,l)
);
}
);
width = 2048;
}
);
unicode = 989544;
}
{
glyphname = "tenpo-sp";
layers = (
{
layerId = m01;
shapes = (
{
attr = {
strokeHeight = 100;
strokeWidth = 100;
};
closed = 1;
nodes = (
(1583,194,o),
(1324,13,o),
(1024,13,cs),
(620,13,o),
(292,341,o),
(292,745,cs),
(292,1058,o),
(489,1326,o),
(766,1430,c),
(804,589,l),
(1695,453,l)
);
},
{
attr = {
strokeHeight = 100;
strokeWidth = 100;
};
closed = 1;
nodes = (
(1755,702,o),
(1756,724,o),
(1756,745,cs),
(1756,1149,o),
(1428,1477,o),
(1024,1477,cs),
(1001,1477,o),
(977,1476,o),
(955,1474,c),
(956,782,l),
(1753,681,l)
);
}
);
width = 2048;
}
);
unicode = 989547;
}
{
glyphname = "toki-sp";
layers = (
{
backgroundImage = {
imagePath = "Images/a-sp-Regular.tif";
};
layerId = m01;
shapes = (
{
attr = {
strokeHeight = 100;
strokeWidth = 100;
};
closed = 1;
nodes = (
(1428,13,o),
(1756,341,o),
(1756,745,cs),
(1756,1149,o),
(1428,1477,o),
(1024,1477,cs),
(620,1477,o),
(292,1149,o),
(292,745,cs),
(292,341,o),
(620,13,o),
(1024,13,cs)
);
},
{
attr = {
strokeHeight = 100;
strokeWidth = 100;
};
closed = 1;
nodes = (
(863,2261,o),
(732,2131,o),
(732,1969,cs),
(732,1808,o),
(863,1677,o),
(1024,1677,cs),
(1185,1677,o),
(1316,1808,o),
(1316,1969,cs),
(1316,2131,o),
(1185,2261,o),
(1024,2261,cs)
);
},
{
attr = {
strokeHeight = 100;
strokeWidth = 100;
};
closed = 1;
nodes = (
(1595,2061,o),
(1464,1931,o),
(1464,1769,cs),
(1464,1608,o),
(1595,1477,o),
(1756,1477,cs),
(1917,1477,o),
(2048,1608,o),
(2048,1769,cs),
(2048,1931,o),
(1917,2061,o),
(1756,2061,cs)
);
},
{
attr = {
strokeHeight = 100;
strokeWidth = 100;
};
closed = 1;
nodes = (
(131,2061,o),
(0,1931,o),
(0,1769,cs),
(0,1608,o),
(131,1477,o),
(292,1477,cs),
(453,1477,o),
(584,1608,o),
(584,1769,cs),
(584,1931,o),
(453,2061,o),
(292,2061,cs)
);
}
);
width = 2048;
}
);
unicode = 989548;
}
{
glyphname = "uta-sp";
layers = (
{
layerId = m01;
shapes = (
{
attr = {
strokeHeight = 100;
strokeWidth = 100;
};
closed = 1;
nodes = (
(1428,763,o),
(1756,1091,o),
(1756,1495,c),
(1024,1227,l),
(292,1495,l),
(292,1091,o),
(620,763,o),
(1024,763,cs)
);
},
{
attr = {
strokeHeight = 100;
strokeWidth = 100;
};
closed = 1;
nodes = (
(1182,-6,o),
(1310,122,o),
(1310,280,cs),
(1310,438,o),
(1182,566,o),
(1024,566,cs),
(866,566,o),
(738,438,o),
(738,280,cs),
(738,122,o),
(866,-6,o),
(1024,-6,cs)
);
}
);
width = 2048;
}
);
unicode = 989552;
}
{
glyphname = "wawa-sp";
layers = (
{
layerId = m01;
shapes = (
{
attr = {
strokeHeight = 100;
strokeWidth = 100;
};
closed = 1;
nodes = (
(1428,13,o),
(1756,341,o),
(1756,745,cs),
(1756,1149,o),
(1428,1477,o),
(1024,1477,cs),
(620,1477,o),
(292,1149,o),
(292,745,cs),
(292,341,o),
(620,13,o),
(1024,13,cs)
);
},
{
attr = {
strokeHeight = 100;
strokeWidth = 100;
};
closed = 1;
nodes = (
(1214,158,o),
(1369,313,o),
(1369,503,cs),
(1369,693,o),
(1214,848,o),
(1024,848,cs),
(834,848,o),
(679,693,o),
(679,503,cs),
(679,313,o),
(834,158,o),
(1024,158,cs)
);
},
{
attr = {
strokeHeight = 100;
strokeWidth = 100;
};
closed = 1;
nodes = (
(212,1333,o),
(292,1488,o),
(292,1678,cs),
(292,1868,o),
(212,2023,o),
(115,2023,cs),
(18,2023,o),
(-62,1868,o),
(-62,1678,cs),
(-62,1488,o),
(18,1333,o),
(115,1333,cs)
);
},
{
attr = {
strokeHeight = 100;
strokeWidth = 100;
};
closed = 1;
nodes = (
(2030,1333,o),
(2110,1488,o),
(2110,1678,cs),
(2110,1868,o),
(2030,2023,o),
(1933,2023,cs),
(1836,2023,o),
(1756,1868,o),
(1756,1678,cs),
(1756,1488,o),
(1836,1333,o),
(1933,1333,cs)
);
}
);
width = 2048;
}
);
unicode = 989557;
}
{
glyphname = "wile-sp";
layers = (
{
layerId = m01;
shapes = (
{
attr = {
strokeHeight = 100;
strokeWidth = 100;
};
closed = 1;
nodes = (
(612,130,o),
(279,463,o),
(279,875,cs),
(279,1058,o),
(345,1225,o),
(454,1355,c),
(755,355,l),
(1024,1160,l),
(1293,355,l),
(1594,1355,l),
(1703,1225,o),
(1769,1058,o),
(1769,875,cs),
(1769,463,o),
(1436,130,o),
(1024,130,cs)
);
}
);
width = 2048;
}
);
unicode = 989559;
}
{
glyphname = "cartouchestart-sp";
layers = (
{
layerId = m01;
shapes = (
{
attr = {
strokeHeight = 100;
strokeWidth = 100;
};
closed = 1;
nodes = (
(850,745,l),
(1888,1807,l),
(1301,1807,o),
(826,1331,o),
(826,745,cs),
(826,158,o),
(1301,-317,o),
(1888,-317,c)
);
}
);
width = 2048;
}
);
unicode = 989584;
}
{
glyphname = "cartoucheend-sp";
layers = (
{
layerId = m01;
shapes = (
{
attr = {
strokeHeight = 30;
strokeWidth = 30;
};
closed = 1;
nodes = (
(743,-317,o),
(1218,158,o),
(1218,745,cs),
(1218,1331,o),
(743,1807,o),
(156,1807,c),
(1194,745,l),
(156,-317,l)
);
}
);
width = 2048;
}
);
unicode = 989585;
}
{
glyphname = newGlyph;
layers = (
{
background = {
shapes = (
{
attr = {
strokeHeight = 30;
strokeWidth = 30;
};
closed = 1;
nodes = (
(566,-328,o),
(796,-369,o),
(1041,-369,cs),
(1249,-369,o),
(1448,-340,o),
(1624,-285,c),
(1045,348,l),
(369,-254,l)
);
}
);
};
layerId = m01;
width = 600;
}
);
}
